<svg xmlns="http://www.w3.org/2000/svg" viewBox="0 0 64 64" width="100%" height="100%">
  <!-- BugLogger Pro Icon -->
  <rect width="64" height="64" rx="16" fill="#2563eb" />
  <g stroke="#ffffff" stroke-width="2.5" stroke-linecap="round" stroke-linejoin="round" fill="none" transform="translate(14, 14) scale(1.5)">
    <path d="m8 2 1.88 1.88"/>
    <path d="M14.12 3.88 16 2"/>
    <path d="M9 7.13v-1a3.003 3.003 0 1 1 6 0v1"/>
    <path d="M12 20c-3.3 0-6-2.7-6-6v-3a4 4 0 0 1 4-4h4a4 4 0 0 1 4 4v3c0 3.3-2.7 6-6 6"/>
    <path d="M12 20v-9"/>
    <path d="M6.53 9C4.6 8.8 3 7.1 3 5"/>
    <path d="M17.47 9c1.93-.2 3.53-1.9 3.53-4"/>
    <path d="M8 14H4"/>
    <path d="M20 14h-4"/>
    <path d="M8 18h-4"/>
    <path d="M20 18h-4"/>
  </g>
</svg>
